<svg id="Layer_1" data-name="Layer 1" xmlns="http://www.w3.org/2000/svg" xmlns:xlink="http://www.w3.org/1999/xlink" viewBox="0 0 20.25 19.38"><g></g><defs><style>.cls-1{fill:url(#radial-gradient);}.cls-2{fill:#006838;}</style><radialGradient id="radial-gradient" cx="11.25" cy="10.31" r="14" gradientUnits="userSpaceOnUse"><stop offset="0.47" stop-color="#5fbb46"/><stop offset="1" stop-color="#006838"/></radialGradient></defs><circle class="cls-1" cx="10.13" cy="9.69" r="9.69"/><circle class="cls-2" cx="11.03" cy="5.21" r="0.44"/><circle class="cls-2" cx="2.19" cy="14.44" r="0.44"/><circle class="cls-2" cx="3.06" cy="10.3" r="0.44"/><circle class="cls-2" cx="5.25" cy="14.44" r="0.44"/><circle class="cls-2" cx="8.37" cy="9.86" r="0.44"/><circle class="cls-2" cx="4.37" cy="17.51" r="0.44"/><circle class="cls-2" cx="10.59" cy="18.38" r="0.44"/><circle class="cls-2" cx="9.06" cy="15.34" r="0.44"/><circle class="cls-2" cx="0.44" cy="10.3" r="0.44"/><circle class="cls-2" cx="2.19" cy="6.53" r="0.44"/><circle class="cls-2" cx="3.94" cy="2.13" r="0.44"/><circle class="cls-2" cx="6.63" cy="5.65" r="0.44"/><circle class="cls-2" cx="12.7" cy="8.38" r="0.44"/><circle class="cls-2" cx="12.7" cy="13.59" r="0.44"/><circle class="cls-2" cx="14.89" cy="17.95" r="0.44"/><circle class="cls-2" cx="17.4" cy="14.46" r="0.44"/><circle class="cls-2" cx="9.5" cy="1.26" r="0.44"/><circle class="cls-2" cx="15.32" cy="1.7" r="0.44"/><circle class="cls-2" cx="17.4" cy="6.09" r="0.44"/><circle class="cls-2" cx="19.82" cy="9.86" r="0.44"/><circle class="cls-2" cx="16.53" cy="11.17" r="0.44"/></svg>