<svg id="dropper" xmlns="http://www.w3.org/2000/svg" xmlns:xlink="http://www.w3.org/1999/xlink" viewBox="0 0 75.34 62.16"><defs><style>.cls-1{fill:url(#linear-gradient);}.cls-2{opacity:0.6;}.cls-3,.cls-5{fill:none;stroke:#a97c50;stroke-miterlimit:10;}.cls-3{stroke-width:2px;}.cls-4{fill:#a97c50;}</style><linearGradient id="linear-gradient" y1="31.08" x2="75.34" y2="31.08" gradientUnits="userSpaceOnUse"><stop offset="0.34" stop-color="#f9ed32"/><stop offset="0.42" stop-color="#f2e631"/><stop offset="0.53" stop-color="#dfd130"/><stop offset="0.67" stop-color="#bfb02d"/><stop offset="0.83" stop-color="#948129"/><stop offset="1" stop-color="#5d4724"/></linearGradient></defs><path class="cls-1" d="M37.67,0H0S7.65,6.13,11.87,13.42a89.89,89.89,0,0,1,5.94,17.42c-.48-2.48,1,2,3.23,16.22,0,0,1,6.51,4.15,10.5,0,0,2.12,2.91,3.76,3.63,0,0,1.36,1,8.72,1s8.72-1,8.72-1c1.64-.72,3.76-3.63,3.76-3.63,3.14-4,4.15-10.5,4.15-10.5,2.27-14.18,3.7-18.7,3.23-16.22a89.89,89.89,0,0,1,5.94-17.42C67.69,6.13,75.34,0,75.34,0Z"/></svg>