<svg id="Game_Over" data-name="Game Over" xmlns="http://www.w3.org/2000/svg" viewBox="0 0 246.42 36.74"><defs><style>.cls-1{fill:#fee33a;stroke:#c1ac30;stroke-miterlimit:10;}</style></defs><path class="cls-1" d="M23.42,33.41a13.88,13.88,0,0,0,3-.28,15.24,15.24,0,0,0,2.45-.77V27.05H25.39a1.66,1.66,0,0,1-1.2-.4,1.38,1.38,0,0,1-.44-1V21.15H36.19V35.91a18,18,0,0,1-2.8,1.69,18.74,18.74,0,0,1-3.1,1.17,24.13,24.13,0,0,1-3.5.67,35.7,35.7,0,0,1-4,.21,18.4,18.4,0,0,1-7.1-1.35A17.18,17.18,0,0,1,10,34.55a17.38,17.38,0,0,1-3.75-5.66,18.5,18.5,0,0,1-1.35-7.12,19.43,19.43,0,0,1,1.29-7.18A16.28,16.28,0,0,1,9.94,8.93a16.88,16.88,0,0,1,5.83-3.69,21.1,21.1,0,0,1,7.65-1.32,22.27,22.27,0,0,1,4.1.36,20.73,20.73,0,0,1,3.54,1,16.49,16.49,0,0,1,3,1.49,17,17,0,0,1,2.4,1.87L34.07,12.2a2.62,2.62,0,0,1-.8.79,1.92,1.92,0,0,1-1,.29,2.81,2.81,0,0,1-1.49-.48c-.64-.39-1.24-.72-1.81-1a10.62,10.62,0,0,0-1.74-.68,11.06,11.06,0,0,0-1.87-.39,18.4,18.4,0,0,0-2.21-.12,10,10,0,0,0-4.1.81,8.61,8.61,0,0,0-3.11,2.27,10,10,0,0,0-2,3.51,14,14,0,0,0-.7,4.57A14.78,14.78,0,0,0,14,26.72a10.73,10.73,0,0,0,2.12,3.65,9.09,9.09,0,0,0,3.22,2.26A10.43,10.43,0,0,0,23.42,33.41Z" transform="translate(-4.44 -3.42)"/><path class="cls-1" d="M58.31,39.27A3.49,3.49,0,0,1,56.72,39a2.19,2.19,0,0,1-.9-1.2l-.53-1.37a22.19,22.19,0,0,1-1.8,1.4,11.43,11.43,0,0,1-1.79,1,8.88,8.88,0,0,1-2,.62,11.69,11.69,0,0,1-2.31.2,10.05,10.05,0,0,1-3.1-.44A6.59,6.59,0,0,1,42,37.9a5.75,5.75,0,0,1-1.5-2.16,7.83,7.83,0,0,1-.53-3,6.22,6.22,0,0,1,.67-2.72,6.75,6.75,0,0,1,2.33-2.54,14.69,14.69,0,0,1,4.46-1.92,27.55,27.55,0,0,1,7.08-.77V23.76a4.66,4.66,0,0,0-.9-3.19,3.3,3.3,0,0,0-2.55-1,6.83,6.83,0,0,0-2.16.29,9.52,9.52,0,0,0-1.5.65c-.44.24-.87.45-1.29.64a3.37,3.37,0,0,1-1.48.29,2.22,2.22,0,0,1-1.31-.37,2.76,2.76,0,0,1-.85-.92l-1.35-2.33a15.15,15.15,0,0,1,5-3,17.71,17.71,0,0,1,5.89-1,11,11,0,0,1,4.07.73,8.88,8.88,0,0,1,3.07,2,9,9,0,0,1,1.93,3.11,11.12,11.12,0,0,1,.67,3.94V39.27Zm-8.54-4.54a5.84,5.84,0,0,0,2.52-.5,7.68,7.68,0,0,0,2.18-1.63V29.19a19.45,19.45,0,0,0-3.67.29,8.73,8.73,0,0,0-2.28.73,2.72,2.72,0,0,0-1.16,1A2.32,2.32,0,0,0,47,32.41a2.1,2.1,0,0,0,.7,1.8A3.34,3.34,0,0,0,49.77,34.73Z" transform="translate(-4.44 -3.42)"/><path class="cls-1" d="M67,39.27V14.38h4.61a2.11,2.11,0,0,1,1.16.31,1.6,1.6,0,0,1,.66.94L73.84,17a14.28,14.28,0,0,1,1.3-1.18,8,8,0,0,1,3.13-1.56,7.69,7.69,0,0,1,2-.23A5.87,5.87,0,0,1,84,15.16a7.29,7.29,0,0,1,2.25,3.11,7.3,7.3,0,0,1,1.52-2A8.54,8.54,0,0,1,89.69,15a9.9,9.9,0,0,1,2.21-.74A11.5,11.5,0,0,1,94.22,14a10.6,10.6,0,0,1,3.79.63,7.26,7.26,0,0,1,2.77,1.85,7.84,7.84,0,0,1,1.69,3,12.64,12.64,0,0,1,.58,4V39.27H95.61V23.45q0-3.86-3.31-3.86a3.38,3.38,0,0,0-2.51,1,3.89,3.89,0,0,0-1,2.86V39.27H81.35V23.45a4.27,4.27,0,0,0-.84-3A3.31,3.31,0,0,0,78,19.59a4.11,4.11,0,0,0-1.91.46,6.89,6.89,0,0,0-1.69,1.22v18Z" transform="translate(-4.44 -3.42)"/><path class="cls-1" d="M119,14a12.65,12.65,0,0,1,4.52.77A9.79,9.79,0,0,1,127,17a10.13,10.13,0,0,1,2.3,3.59,13.18,13.18,0,0,1,.83,4.81,10.32,10.32,0,0,1-.07,1.37,2.18,2.18,0,0,1-.27.84,1,1,0,0,1-.51.43,2.43,2.43,0,0,1-.83.12H114.14A7,7,0,0,0,116,32.68a5.65,5.65,0,0,0,4,1.41,7.07,7.07,0,0,0,2.24-.32,10.78,10.78,0,0,0,1.66-.69l1.35-.7a2.75,2.75,0,0,1,1.28-.31,1.56,1.56,0,0,1,1.35.65L130,35.38a11,11,0,0,1-2.49,2.15,13.59,13.59,0,0,1-2.73,1.3,15.16,15.16,0,0,1-2.81.64,21.16,21.16,0,0,1-2.68.18,14,14,0,0,1-4.91-.85,11.3,11.3,0,0,1-4-2.53,11.93,11.93,0,0,1-2.72-4.18,15.66,15.66,0,0,1-1-5.8,13.09,13.09,0,0,1,.85-4.73A11.56,11.56,0,0,1,110,17.65,11.69,11.69,0,0,1,113.86,15,12.86,12.86,0,0,1,119,14Zm.14,5.13a4.5,4.5,0,0,0-3.34,1.22,6.31,6.31,0,0,0-1.58,3.49h9.29a6.68,6.68,0,0,0-.23-1.73,4.21,4.21,0,0,0-.74-1.5,3.84,3.84,0,0,0-1.36-1.07A4.66,4.66,0,0,0,119.13,19.13Z" transform="translate(-4.44 -3.42)"/><path class="cls-1" d="M178.22,21.77a18.86,18.86,0,0,1-1.31,7.06,17,17,0,0,1-3.68,5.68,17.24,17.24,0,0,1-5.73,3.78,21,21,0,0,1-14.87,0,17.33,17.33,0,0,1-5.75-3.78,16.9,16.9,0,0,1-3.69-5.68,18.86,18.86,0,0,1-1.31-7.06,18.81,18.81,0,0,1,1.31-7,16.76,16.76,0,0,1,3.69-5.67,17.13,17.13,0,0,1,5.75-3.76,20.79,20.79,0,0,1,14.87,0,17.24,17.24,0,0,1,5.73,3.78,16.94,16.94,0,0,1,3.68,5.66A18.78,18.78,0,0,1,178.22,21.77Zm-8.31,0a15,15,0,0,0-.67-4.66,9.88,9.88,0,0,0-1.93-3.52,8.35,8.35,0,0,0-3.08-2.21,10.71,10.71,0,0,0-4.16-.77,10.83,10.83,0,0,0-4.19.77,8.3,8.3,0,0,0-3.09,2.21,9.73,9.73,0,0,0-1.93,3.52,15,15,0,0,0-.68,4.66,15.19,15.19,0,0,0,.68,4.7A9.77,9.77,0,0,0,152.79,30a8.28,8.28,0,0,0,3.09,2.2,11,11,0,0,0,4.19.75,10.9,10.9,0,0,0,4.16-.75,8.32,8.32,0,0,0,3.08-2.2,9.92,9.92,0,0,0,1.93-3.51A15.2,15.2,0,0,0,169.91,21.77Z" transform="translate(-4.44 -3.42)"/><path class="cls-1" d="M195.88,39.27h-6.77l-9.65-24.89h6.2a2.36,2.36,0,0,1,1.33.37,1.87,1.87,0,0,1,.73.93l3.46,11.16c.27.91.53,1.8.78,2.66s.46,1.73.63,2.59c.18-.86.39-1.72.65-2.59s.53-1.75.82-2.66l3.6-11.16a1.8,1.8,0,0,1,.72-.93,2.14,2.14,0,0,1,1.24-.37h5.91Z" transform="translate(-4.44 -3.42)"/><path class="cls-1" d="M218.34,14a12.67,12.67,0,0,1,4.53.77A9.79,9.79,0,0,1,226.4,17a10.13,10.13,0,0,1,2.3,3.59,13.18,13.18,0,0,1,.83,4.81,12.37,12.37,0,0,1-.07,1.37,2.18,2.18,0,0,1-.27.84,1.06,1.06,0,0,1-.51.43,2.47,2.47,0,0,1-.83.12H213.5a7,7,0,0,0,1.89,4.52,5.65,5.65,0,0,0,4,1.41,7,7,0,0,0,2.23-.32,10.92,10.92,0,0,0,1.67-.69l1.35-.7a2.72,2.72,0,0,1,1.28-.31,1.53,1.53,0,0,1,1.34.65l2.16,2.66a10.79,10.79,0,0,1-2.48,2.15,13.42,13.42,0,0,1-2.74,1.3,14.88,14.88,0,0,1-2.8.64,21.16,21.16,0,0,1-2.68.18,14,14,0,0,1-4.91-.85,11.34,11.34,0,0,1-4-2.53,12,12,0,0,1-2.71-4.18,15.66,15.66,0,0,1-1-5.8,13.09,13.09,0,0,1,.85-4.73,11.56,11.56,0,0,1,2.45-3.91A11.69,11.69,0,0,1,213.22,15,12.84,12.84,0,0,1,218.34,14Zm.15,5.13a4.48,4.48,0,0,0-3.34,1.22,6.24,6.24,0,0,0-1.58,3.49h9.29a6.68,6.68,0,0,0-.23-1.73,4.07,4.07,0,0,0-.75-1.5,3.71,3.71,0,0,0-1.35-1.07A4.66,4.66,0,0,0,218.49,19.13Z" transform="translate(-4.44 -3.42)"/><path class="cls-1" d="M233.8,39.27V14.38h4.42a3.5,3.5,0,0,1,.92.1,1.44,1.44,0,0,1,.62.3,1.22,1.22,0,0,1,.39.54,6.36,6.36,0,0,1,.23.81l.4,2.33a12.26,12.26,0,0,1,3.07-3.33,6.25,6.25,0,0,1,3.73-1.23,4.25,4.25,0,0,1,2.73.82l-1,5.47a1.06,1.06,0,0,1-.38.71,1.35,1.35,0,0,1-.77.2,4.55,4.55,0,0,1-1-.11,7.7,7.7,0,0,0-1.39-.1c-2,0-3.49,1-4.61,3.12V39.27Z" transform="translate(-4.44 -3.42)"/></svg>