<?xml version="1.0" encoding="utf-8"?>
<!-- Generator: Adobe Illustrator 24.1.2, SVG Export Plug-In . SVG Version: 6.00 Build 0)  -->
<svg version="1.1" xmlns="http://www.w3.org/2000/svg" xmlns:xlink="http://www.w3.org/1999/xlink" x="0px" y="0px"
	 viewBox="0 0 144.4 29" style="enable-background:new 0 0 144.4 29;" xml:space="preserve">
<style type="text/css">
	.st0{fill:#E8D333;stroke:#6EC38D;stroke-width:2;stroke-miterlimit:10;}
</style>
<g id="Layer_1">
	<g id="Title">
		<path class="st0" d="M5.2,1h133.9c2.3,0,4.2,1.9,4.2,4.2v18.6c0,2.3-1.9,4.2-4.2,4.2H5.2C2.9,28,1,26.2,1,23.8V5.2
			C1,2.9,2.9,1,5.2,1z"/>
		<path d="M18.8,16.5v3.6H17V9.9h3.3c0.6,0,1.2,0.1,1.8,0.2c0.5,0.1,0.9,0.4,1.2,0.7c0.3,0.3,0.6,0.6,0.7,1c0.2,0.4,0.2,0.9,0.2,1.4
			c0,0.5-0.1,0.9-0.2,1.3c-0.2,0.4-0.4,0.8-0.7,1.1c-0.4,0.3-0.8,0.5-1.2,0.7c-0.6,0.2-1.1,0.3-1.7,0.2L18.8,16.5z M18.8,15h1.4
			c0.3,0,0.6,0,0.9-0.1c0.2-0.1,0.5-0.2,0.6-0.4c0.2-0.2,0.3-0.4,0.4-0.6c0.1-0.2,0.1-0.5,0.1-0.7c0-0.3,0-0.5-0.1-0.7
			c-0.1-0.2-0.2-0.4-0.4-0.6c-0.2-0.2-0.4-0.3-0.6-0.4c-0.3-0.1-0.6-0.1-0.9-0.1h-1.4V15z"/>
		<path d="M28.2,18.5h4.1v1.5h-5.9V9.9h1.9V18.5z"/>
		<path d="M43.2,20.1h-1.5c-0.1,0-0.3,0-0.4-0.1c-0.1-0.1-0.2-0.2-0.2-0.3l-0.8-2.1h-4.2l-0.8,2.1c0,0.1-0.1,0.2-0.2,0.3
			c-0.1,0.1-0.3,0.1-0.4,0.1h-1.5l4-10.1h1.9L43.2,20.1z M36.6,16.2h3.2l-1.2-3.4c-0.1-0.1-0.1-0.3-0.2-0.5s-0.1-0.4-0.2-0.7
			L38,12.3c-0.1,0.2-0.1,0.4-0.2,0.5L36.6,16.2z"/>
		<path d="M48.1,16.1v3.9h-1.9v-3.9l-3.7-6.2h1.7c0.1,0,0.3,0,0.4,0.1c0.1,0.1,0.2,0.2,0.2,0.3l1.8,3.4c0.1,0.2,0.2,0.4,0.3,0.6
			c0.1,0.2,0.2,0.4,0.2,0.5c0.1-0.2,0.1-0.4,0.2-0.5c0.1-0.2,0.2-0.4,0.3-0.6l1.8-3.4c0.1-0.1,0.1-0.2,0.2-0.3
			c0.1-0.1,0.2-0.1,0.4-0.1h1.7L48.1,16.1z"/>
		<polygon points="114.3,21.8 126.6,15.3 114.3,8.8 		"/>
	</g>
</g>
<g id="Play_again">
	<g>
		<path d="M66.3,19.8h-1.5c-0.2,0-0.3,0-0.4-0.1c-0.1-0.1-0.2-0.2-0.2-0.3l-0.8-2.1h-4.2l-0.8,2.1c0,0.1-0.1,0.2-0.2,0.3
			c-0.1,0.1-0.2,0.1-0.4,0.1h-1.5l4-10.1h1.9L66.3,19.8z M59.7,16h3.2l-1.2-3.4c-0.1-0.1-0.1-0.3-0.2-0.5s-0.1-0.4-0.2-0.7
			c-0.1,0.2-0.1,0.5-0.2,0.7c-0.1,0.2-0.1,0.4-0.2,0.5L59.7,16z"/>
		<path d="M72.3,18.4c0.4,0,0.8,0,1.1-0.1c0.3-0.1,0.6-0.2,0.9-0.3v-1.8H73c-0.1,0-0.2,0-0.3-0.1c-0.1-0.1-0.1-0.2-0.1-0.2v-1.1H76
			v4.1c-0.3,0.2-0.5,0.3-0.8,0.5c-0.3,0.1-0.6,0.3-0.9,0.3c-0.3,0.1-0.7,0.2-1,0.2c-0.4,0-0.7,0.1-1.2,0.1c-0.7,0-1.4-0.1-2-0.4
			c-0.6-0.3-1.2-0.6-1.6-1.1c-0.5-0.5-0.8-1-1.1-1.6c-0.3-0.6-0.4-1.3-0.4-2.1c0-0.8,0.1-1.5,0.4-2.1c0.2-0.6,0.6-1.2,1.1-1.6
			s1-0.8,1.7-1.1c0.6-0.3,1.4-0.4,2.2-0.4c0.8,0,1.5,0.1,2.1,0.4s1.1,0.6,1.5,1l-0.5,0.9C75.4,11.9,75.2,12,75,12
			c-0.1,0-0.2,0-0.3-0.1c-0.1-0.1-0.3-0.2-0.5-0.3s-0.3-0.2-0.5-0.2c-0.2-0.1-0.4-0.1-0.6-0.2c-0.2,0-0.5-0.1-0.8-0.1
			c-0.5,0-1,0.1-1.4,0.3c-0.4,0.2-0.7,0.4-1,0.7c-0.3,0.3-0.5,0.7-0.7,1.1S69,14.2,69,14.8c0,0.6,0.1,1.1,0.2,1.6
			c0.2,0.5,0.4,0.8,0.7,1.2c0.3,0.3,0.6,0.6,1,0.7C71.4,18.4,71.8,18.4,72.3,18.4z"/>
		<path d="M87.4,19.8h-1.5c-0.2,0-0.3,0-0.4-0.1c-0.1-0.1-0.2-0.2-0.2-0.3l-0.8-2.1h-4.2l-0.8,2.1c0,0.1-0.1,0.2-0.2,0.3
			c-0.1,0.1-0.2,0.1-0.4,0.1h-1.5l4-10.1h1.9L87.4,19.8z M80.8,16h3.2l-1.2-3.4c-0.1-0.1-0.1-0.3-0.2-0.5c-0.1-0.2-0.1-0.4-0.2-0.7
			c-0.1,0.2-0.1,0.5-0.2,0.7c-0.1,0.2-0.1,0.4-0.2,0.5L80.8,16z"/>
		<path d="M91.2,19.8h-1.9V9.7h1.9V19.8z"/>
		<path d="M95.4,9.7c0.1,0,0.1,0,0.2,0c0,0,0.1,0.1,0.1,0.1s0.1,0.1,0.1,0.2l5.3,6.8c0-0.2,0-0.3,0-0.5c0-0.2,0-0.3,0-0.4V9.7h1.7
			v10.1h-1c-0.1,0-0.3,0-0.4-0.1c-0.1,0-0.2-0.1-0.3-0.3l-5.3-6.7c0,0.1,0,0.3,0,0.4c0,0.1,0,0.3,0,0.4v6.2h-1.7V9.7h1
			C95.3,9.7,95.4,9.7,95.4,9.7z"/>
	</g>
</g>
</svg>
