<svg xmlns="http://www.w3.org/2000/svg" viewBox="0 0 90.12 29.05"><defs><style>.cls-1{fill:#e8d333;stroke:#6ec38d;stroke-miterlimit:10;stroke-width:2px;}</style></defs><g id="Title"><rect class="cls-1" x="1" y="1" width="88.12" height="27.05" rx="4.2"/><path d="M18.74,16.29v3.56H16.86V9.73h3.3a5.69,5.69,0,0,1,1.75.24,3.43,3.43,0,0,1,1.23.66,2.65,2.65,0,0,1,.71,1A3.5,3.5,0,0,1,24.08,13a3.59,3.59,0,0,1-.24,1.34,2.88,2.88,0,0,1-.73,1.06,3.47,3.47,0,0,1-1.23.68,5.24,5.24,0,0,1-1.72.25Zm0-1.47h1.42a2.75,2.75,0,0,0,.9-.13,1.74,1.74,0,0,0,.64-.37,1.58,1.58,0,0,0,.38-.59A2.35,2.35,0,0,0,22.2,13a2.17,2.17,0,0,0-.12-.74,1.55,1.55,0,0,0-.38-.56,1.71,1.71,0,0,0-.64-.35,3.06,3.06,0,0,0-.9-.12H18.74Z" transform="translate(0.09 0.21)"/><path d="M28.13,18.3h4.05v1.55H26.25V9.73h1.88Z" transform="translate(0.09 0.21)"/><path d="M43.08,19.85H41.63a.66.66,0,0,1-.41-.12.63.63,0,0,1-.22-.31l-.76-2.06H36.05l-.76,2.06a.69.69,0,0,1-.22.3.6.6,0,0,1-.4.13H33.21l4-10.12h1.93ZM36.53,16h3.23l-1.23-3.37c-.06-.15-.12-.32-.19-.53s-.13-.42-.2-.66l-.19.67c-.06.2-.13.38-.19.54Z" transform="translate(0.09 0.21)"/><path d="M48.05,15.92v3.93H46.17V15.92L42.48,9.73h1.66a.61.61,0,0,1,.39.12,1.22,1.22,0,0,1,.24.3l1.85,3.38a5,5,0,0,1,.28.57c.08.18.16.36.22.53q.09-.27.21-.54c.08-.18.17-.36.28-.56l1.84-3.38a.87.87,0,0,1,.23-.29.56.56,0,0,1,.39-.13h1.67Z" transform="translate(0.09 0.21)"/><polygon points="64.15 21.82 75.44 15.3 64.15 8.78 64.15 21.82"/></g></svg>