<svg xmlns="http://www.w3.org/2000/svg" xmlns:xlink="http://www.w3.org/1999/xlink" viewBox="0 0 397.79 550.92"><defs><style>.cls-1{fill:url(#radial-gradient);}.cls-2{fill:#ed1c24;}.cls-3{fill:#6ec38c;}.cls-4{fill:#4e6ea9;}.cls-25,.cls-26,.cls-5{fill:#e8d333;}.cls-5{stroke:#c1ac30;}.cls-10,.cls-11,.cls-12,.cls-13,.cls-14,.cls-15,.cls-18,.cls-20,.cls-21,.cls-22,.cls-27,.cls-28,.cls-29,.cls-5,.cls-7,.cls-8{stroke-miterlimit:10;}.cls-18,.cls-21,.cls-5,.cls-7,.cls-8{stroke-width:2px;}.cls-6{fill:#414042;}.cls-10,.cls-11,.cls-12,.cls-13,.cls-14,.cls-18,.cls-20,.cls-28,.cls-7{fill:none;}.cls-7{stroke:#6d6e71;}.cls-8{fill:#e6e7e8;}.cls-21,.cls-8{stroke:#666766;}.cls-9{fill:#020202;}.cls-10{stroke:#5765af;}.cls-10,.cls-11,.cls-12,.cls-13,.cls-14,.cls-28{stroke-width:8px;}.cls-11{stroke:#662d91;}.cls-12{stroke:#69c;}.cls-13{stroke:#00a79d;}.cls-14{stroke:#2bb673;}.cls-15,.cls-28,.cls-29{stroke:#009444;}.cls-15{fill:url(#radial-gradient-2);}.cls-16{fill:url(#linear-gradient);}.cls-17{opacity:0.6;}.cls-18,.cls-20{stroke:#a97c50;}.cls-19{fill:#a97c50;}.cls-21{fill:#c6c6c5;}.cls-22{stroke:#19689e;fill:url(#linear-gradient-2);}.cls-23{fill:#231f20;}.cls-24{fill:url(#linear-gradient-3);}.cls-25{font-size:45px;font-family:HuggyBear, Huggy Bear;}.cls-27{fill:#eee;stroke:#81bbe6;}.cls-29{fill:#09572c;}</style><radialGradient id="radial-gradient" cx="327.16" cy="481.56" r="11.22" gradientUnits="userSpaceOnUse"><stop offset="0.1" stop-color="#facc88"/><stop offset="0.25" stop-color="#fac984"/><stop offset="0.4" stop-color="#f8c278"/><stop offset="0.55" stop-color="#f6b563"/><stop offset="0.7" stop-color="#f4a346"/><stop offset="0.74" stop-color="#f39e3f"/></radialGradient><radialGradient id="radial-gradient-2" cx="200.6" cy="254.54" r="50.2" gradientUnits="userSpaceOnUse"><stop offset="0.22"/><stop offset="1" stop-color="#2c5531"/></radialGradient><linearGradient id="linear-gradient" x1="263.65" y1="172.21" x2="338.99" y2="172.21" gradientUnits="userSpaceOnUse"><stop offset="0.34" stop-color="#f9ed32"/><stop offset="0.42" stop-color="#f2e631"/><stop offset="0.53" stop-color="#dfd130"/><stop offset="0.67" stop-color="#bfb02d"/><stop offset="0.83" stop-color="#948129"/><stop offset="1" stop-color="#5d4724"/></linearGradient><linearGradient id="linear-gradient-2" x1="438.59" y1="232.95" x2="454.96" y2="232.95" gradientUnits="userSpaceOnUse"><stop offset="0.09" stop-color="#69c"/><stop offset="0.93" stop-color="#5765af"/></linearGradient><linearGradient id="linear-gradient-3" x1="478.08" y1="208.34" x2="478.08" y2="256.61" xlink:href="#linear-gradient-2"/></defs><g id="ringer"><circle class="cls-1" cx="327.35" cy="480.29" r="10.26"/><ellipse class="cls-2" cx="327.35" cy="472.52" rx="6.71" ry="2.46"/></g><g id="background"><rect class="cls-3" y="46.39" width="397.2" height="461.34"/><rect class="cls-4" width="397.2" height="46.39"/><rect class="cls-4" y="507.73" width="397.2" height="43.19"/></g><g id="paddles"><rect class="cls-5" x="310.16" y="463.8" width="34.37" height="34.37" rx="12"/><rect class="cls-5" x="310.55" y="399.56" width="34.37" height="34.37" rx="12"/><rect class="cls-5" x="270.52" y="434.96" width="34.37" height="34.37" rx="8.21"/><rect class="cls-5" x="349.01" y="435.16" width="34.37" height="34.37" rx="12"/><polygon class="cls-6" points="361.75 459.58 374.63 452.15 361.75 444.71 361.75 459.58"/><rect class="cls-5" x="19.42" y="454.4" width="61.56" height="28.35" rx="12"/><path class="cls-7" d="M141.1,608.29a18.18,18.18,0,0,1,25.73,0" transform="translate(-103.4 -141.14)"/><polygon class="cls-6" points="292.15 459.92 279.27 452.48 292.15 445.04 292.15 459.92"/><polygon class="cls-6" points="334.99 421.18 327.55 408.3 320.11 421.18 334.99 421.18"/><polygon class="cls-6" points="334.35 477.25 326.91 490.13 319.47 477.25 334.35 477.25"/><circle class="cls-8" cx="29.2" cy="471.77" r="3.88"/><circle class="cls-8" cx="71.99" cy="470.57" r="3.88"/><polygon class="cls-6" points="58.31 468.51 65.82 468.87 62.37 462.19 58.31 468.51"/><polygon class="cls-6" points="34.61 468.51 42.12 468.87 38.67 462.19 34.61 468.51"/></g><g id="ringBackground"><circle class="cls-9" cx="200.3" cy="253.04" r="168.7"/></g><g id="ring1"><circle class="cls-10" cx="199.78" cy="252.11" r="168.19"/><circle class="cls-11" cx="200.21" cy="252.96" r="150.64"/><circle class="cls-12" cx="200" cy="253.27" r="133.07"/><circle class="cls-13" cx="201.43" cy="252.83" r="114.86"/><circle class="cls-14" cx="202.28" cy="252.66" r="96.42"/><circle class="cls-15" cx="202.21" cy="252.54" r="69.23"/></g><g id="dropper"><path class="cls-16" d="M301.32,141.14H263.65s7.65,6.12,11.87,13.42A89.23,89.23,0,0,1,281.45,172c-.47-2.47,1,2,3.24,16.23,0,0,1,6.51,4.15,10.5,0,0,2.11,2.9,3.76,3.63,0,0,1.35,1,8.72,1s8.72-1,8.72-1c1.64-.73,3.75-3.63,3.75-3.63,3.15-4,4.16-10.5,4.16-10.5,2.27-14.19,3.7-18.7,3.23-16.23a89.66,89.66,0,0,1,5.94-17.41c4.22-7.3,11.87-13.42,11.87-13.42Z" transform="translate(-103.4 -141.14)"/><g class="cls-17"><line class="cls-18" x1="197.53" y1="33.39" x2="197.53" y2="41.04"/><polygon class="cls-19" points="187.55 38.12 197.53 55.39 207.5 38.12 187.55 38.12"/><polyline class="cls-19" points="196.34 32.16 197.53 33.54 198.71 34.93 198.71 40 198.71 42.57 198.71 45.1 198.71 50.21 197.53 50.21"/><polyline class="cls-20" points="196.34 32.16 197.53 33.54 198.71 34.93 198.71 40 198.71 42.57 198.71 45.1 198.71 46.82"/><polygon class="cls-19" points="196.38 45.36 197.53 50.21 201.16 46.79 196.38 45.36"/><polygon class="cls-19" points="199.9 45.03 197.53 45.03 195.15 45.03 195.15 37.98 195.15 30.93 197.53 30.93 199.9 30.93 199.9 37.98 199.9 45.03"/></g></g><g id="cup"><circle class="cls-21" cx="49.57" cy="262.86" r="7.01"/><circle class="cls-21" cx="350.84" cy="262.86" r="7.01"/><circle class="cls-21" cx="200.23" cy="102.32" r="7.01"/><circle class="cls-21" cx="200.23" cy="403.6" r="7.01"/><circle class="cls-21" cx="294.52" cy="163.84" r="7.01"/><circle class="cls-21" cx="105.87" cy="349.08" r="7.01"/><circle class="cls-21" cx="104.87" cy="162.84" r="7.01"/><circle class="cls-21" cx="293.2" cy="349.08" r="7.01"/><circle class="cls-21" cx="157.24" cy="358.09" r="7.01"/><circle class="cls-21" cx="249.37" cy="149.83" r="7.01"/><circle class="cls-21" cx="304.89" cy="302.9" r="7.01"/><circle class="cls-21" cx="100.86" cy="197.03" r="7.01"/><circle class="cls-21" cx="163.8" cy="163.84" r="7.01"/><circle class="cls-21" cx="242.64" cy="339.23" r="7.01"/><circle class="cls-21" cx="294.52" cy="110.43" r="7.01"/><circle class="cls-21" cx="113.87" cy="398.56" r="7.01"/><circle class="cls-21" cx="327.73" cy="361.64" r="7.01"/><circle class="cls-21" cx="71.99" cy="138.97" r="7.01"/></g><g id="cannon"><path class="cls-22" d="M448.1,256.34h0a6.88,6.88,0,0,1-6.85-6.86s-2.66-13.56-2.66-17.65c0-6.27,2.66-15.56,2.66-15.4a6.88,6.88,0,0,1,6.85-6.86h0a6.88,6.88,0,0,1,6.86,6.86v33A6.88,6.88,0,0,1,448.1,256.34Z" transform="translate(-103.4 -141.14)"/><path class="cls-23" d="M447.22,251.57h0c-2.66,0-4.84-2.5-4.84-5.54,0,0-1.87-11-1.87-14.27a62.15,62.15,0,0,1,1.87-12.44c0-3,2.18-5.54,4.84-5.54h0c2.66,0,4.83,2.49,4.83,5.54V246C452.05,249.07,449.88,251.57,447.22,251.57Z" transform="translate(-103.4 -141.14)"/><path class="cls-24" d="M500.35,203.05a35.39,35.39,0,0,0-19,5.4h0c-14,9.17-26.4,8-26.4,8V248c16.07.87,22.37,3.76,24.39,5l.81.58,0,0h0a35.16,35.16,0,0,0,20.17,6.19c1.63,0,.4-12.71.4-28.4S502,203.05,500.35,203.05Z" transform="translate(-103.4 -141.14)"/></g><g id="Title"><text class="cls-25" transform="translate(10.94 46.39)">Ringer</text></g><g id="score"><path class="cls-26" d="M119.6,675.94a5.74,5.74,0,0,1-4.28-1.65,1.09,1.09,0,0,1-.21-.27.85.85,0,0,1-.08-.35.73.73,0,0,1,.21-.51.67.67,0,0,1,.51-.22.61.61,0,0,1,.45.19,5.06,5.06,0,0,0,1.52,1,4.56,4.56,0,0,0,1.85.36,4,4,0,0,0,1.42-.25,2.6,2.6,0,0,0,1-.71,1.56,1.56,0,0,0,.37-1,1.75,1.75,0,0,0-.4-1.19,3,3,0,0,0-1.12-.77,9.56,9.56,0,0,0-1.64-.54,9.7,9.7,0,0,1-1.52-.48,4.32,4.32,0,0,1-1.21-.7,2.76,2.76,0,0,1-.79-1,3.32,3.32,0,0,1-.28-1.43,3,3,0,0,1,.54-1.79,3.61,3.61,0,0,1,1.5-1.2,5.48,5.48,0,0,1,2.21-.43,6,6,0,0,1,2.08.36,4.07,4.07,0,0,1,1.57,1,1,1,0,0,1,.36.69.66.66,0,0,1-.22.47.75.75,0,0,1-.52.23.55.55,0,0,1-.36-.13,2.9,2.9,0,0,0-.78-.61,5,5,0,0,0-1-.43,3.75,3.75,0,0,0-1.1-.16,4.06,4.06,0,0,0-1.46.24,2.31,2.31,0,0,0-1,.67,1.59,1.59,0,0,0-.35,1.05,1.63,1.63,0,0,0,.39,1.12,2.84,2.84,0,0,0,1.06.72,12.19,12.19,0,0,0,1.48.5,15,15,0,0,1,1.63.49,4.94,4.94,0,0,1,1.29.7,2.7,2.7,0,0,1,.83,1,3.66,3.66,0,0,1,.3,1.57,3,3,0,0,1-.56,1.77,3.86,3.86,0,0,1-1.52,1.22A5,5,0,0,1,119.6,675.94Z" transform="translate(-103.4 -141.14)"/><path class="cls-26" d="M135.32,664a.67.67,0,0,1,.36.49.78.78,0,0,1-.17.61.57.57,0,0,1-.41.24.81.81,0,0,1-.5-.1,5.41,5.41,0,0,0-1.28-.56,4.92,4.92,0,0,0-1.44-.21,5.13,5.13,0,0,0-1.95.36,4.54,4.54,0,0,0-1.53,1,4.77,4.77,0,0,0-1,1.6,5.44,5.44,0,0,0-.36,2,5.73,5.73,0,0,0,.37,2.13,4.87,4.87,0,0,0,1,1.59,4.46,4.46,0,0,0,1.53,1,5.1,5.1,0,0,0,1.9.34,5.18,5.18,0,0,0,1.42-.2,4.91,4.91,0,0,0,1.28-.57.78.78,0,0,1,.51-.09.55.55,0,0,1,.42.25.68.68,0,0,1-.18,1.08,6,6,0,0,1-1,.48,7.9,7.9,0,0,1-1.2.35,6.41,6.41,0,0,1-1.23.12,6.66,6.66,0,0,1-2.45-.45,6.35,6.35,0,0,1-2-1.28,5.89,5.89,0,0,1-1.4-2,7,7,0,0,1-.5-2.71,6.71,6.71,0,0,1,.48-2.56,6.07,6.07,0,0,1,3.38-3.39,6.74,6.74,0,0,1,2.53-.47,6.94,6.94,0,0,1,1.82.24A6.18,6.18,0,0,1,135.32,664Z" transform="translate(-103.4 -141.14)"/><path class="cls-26" d="M149.21,669.46a7.15,7.15,0,0,1-.45,2.57,6.3,6.3,0,0,1-1.27,2.06,5.72,5.72,0,0,1-1.92,1.37,6.07,6.07,0,0,1-2.44.48,6,6,0,0,1-2.42-.48,5.86,5.86,0,0,1-1.93-1.37,6.12,6.12,0,0,1-1.26-2.06,7.7,7.7,0,0,1,0-5.13,5.93,5.93,0,0,1,1.26-2.06,5.72,5.72,0,0,1,1.93-1.37,5.82,5.82,0,0,1,2.42-.49,5.91,5.91,0,0,1,2.44.49,5.58,5.58,0,0,1,1.92,1.37,6.1,6.1,0,0,1,1.27,2.06A7.1,7.1,0,0,1,149.21,669.46Zm-1.56,0a5.75,5.75,0,0,0-.58-2.6,4.46,4.46,0,0,0-1.59-1.79,4.3,4.3,0,0,0-2.35-.65,4.23,4.23,0,0,0-2.33.65,4.52,4.52,0,0,0-1.6,1.78,6.24,6.24,0,0,0,0,5.21,4.42,4.42,0,0,0,1.6,1.79,4.15,4.15,0,0,0,2.33.65,4.22,4.22,0,0,0,2.35-.65,4.4,4.4,0,0,0,1.59-1.79A5.75,5.75,0,0,0,147.65,669.46Z" transform="translate(-103.4 -141.14)"/><path class="cls-26" d="M152.42,675.76a.91.91,0,0,1-.6-.21.67.67,0,0,1-.25-.53V663.9a.69.69,0,0,1,.22-.52.67.67,0,0,1,.52-.22h5a3.56,3.56,0,0,1,1.81.46,3.49,3.49,0,0,1,1.29,1.27,3.59,3.59,0,0,1-.6,4.39,3.1,3.1,0,0,1-1.15.72l-.4-.27a2.76,2.76,0,0,1,1.1.5,2.86,2.86,0,0,1,.79.93,2.93,2.93,0,0,1,.32,1.33c0,.44.06.79.09,1.06a2,2,0,0,0,.17.62.79.79,0,0,0,.3.35.74.74,0,0,1,.33.43.55.55,0,0,1-.09.52.63.63,0,0,1-.31.25.9.9,0,0,1-.4,0,1.08,1.08,0,0,1-.36-.11,2.58,2.58,0,0,1-.55-.48,2.49,2.49,0,0,1-.45-.91,6.31,6.31,0,0,1-.17-1.62,2.12,2.12,0,0,0-.19-1,1.63,1.63,0,0,0-.48-.61,1.78,1.78,0,0,0-.68-.32,2.86,2.86,0,0,0-.77-.1h-4l.21-.31V675a.81.81,0,0,1-.18.53A.6.6,0,0,1,152.42,675.76Zm.45-6.41h4.41a1.87,1.87,0,0,0,1-.36,2.3,2.3,0,0,0,.74-.9,2.8,2.8,0,0,0,.29-1.33,2.17,2.17,0,0,0-.6-1.56,2,2,0,0,0-1.5-.63h-4.25l.14-.36v5.47Z" transform="translate(-103.4 -141.14)"/><path class="cls-26" d="M164.48,663.16h6.4a.74.74,0,0,1,.53.21.69.69,0,0,1,.21.51.64.64,0,0,1-.21.5.82.82,0,0,1-.53.19h-5.79l.16-.31v4.54l-.18-.2h5a.73.73,0,0,1,.53.2.67.67,0,0,1,.21.52.62.62,0,0,1-.21.49.77.77,0,0,1-.53.19h-4.95l.13-.18v4.66l-.11-.12h5.74a.74.74,0,0,1,.53.21.7.7,0,0,1,.21.49.66.66,0,0,1-.21.5.73.73,0,0,1-.53.2h-6.4a.72.72,0,0,1-.74-.74V663.9a.72.72,0,0,1,.21-.52A.71.71,0,0,1,164.48,663.16Z" transform="translate(-103.4 -141.14)"/><path class="cls-26" d="M174.3,668.42a.75.75,0,0,1-.58-.22.8.8,0,0,1-.21-.59v-.36a.82.82,0,0,1,.21-.61.75.75,0,0,1,.58-.22h.15a.74.74,0,0,1,.59.22.86.86,0,0,1,.2.61v.36a.84.84,0,0,1-.2.59.74.74,0,0,1-.59.22Zm0,7.34a.75.75,0,0,1-.58-.22.85.85,0,0,1-.21-.61v-.36a.8.8,0,0,1,.21-.59.78.78,0,0,1,.58-.22h.15a.78.78,0,0,1,.59.22.84.84,0,0,1,.2.59v.36a.9.9,0,0,1-.2.61.74.74,0,0,1-.59.22Z" transform="translate(-103.4 -141.14)"/><rect class="cls-27" x="81.49" y="516.49" width="99.84" height="23.67"/></g><g id="inner_ring" data-name="inner ring"><circle class="cls-28" cx="201.7" cy="251.59" r="68.28"/></g><g id="leftramp"><path class="cls-29" d="M243.11,411.91c-13.82,0-22.13-8.14-22.13-18.16s8.31-18.16,22.13-18.16" transform="translate(-103.4 -141.14)"/></g><g id="rightramp"><path class="cls-29" d="M366.78,412.25c13.82,0,22.13-8.13,22.13-18.16s-8.31-18.15-22.13-18.15" transform="translate(-103.4 -141.14)"/></g><g id="hole"><circle cx="201.43" cy="253.68" r="16.19"/></g></svg>