<svg xmlns="http://www.w3.org/2000/svg" xmlns:xlink="http://www.w3.org/1999/xlink" viewBox="0 0 397.79 550.92"><defs><style>.cls-1{fill:#6ec38c;}.cls-2{fill:#4e6ea9;}.cls-23,.cls-3{fill:#e8d333;}.cls-3{stroke:#c1ac30;}.cls-10,.cls-11,.cls-12,.cls-13,.cls-16,.cls-18,.cls-19,.cls-20,.cls-24,.cls-25,.cls-26,.cls-3,.cls-5,.cls-6,.cls-8,.cls-9{stroke-miterlimit:10;}.cls-16,.cls-19,.cls-3,.cls-5,.cls-6{stroke-width:2px;}.cls-4{fill:#414042;}.cls-10,.cls-11,.cls-12,.cls-16,.cls-18,.cls-25,.cls-5,.cls-8,.cls-9{fill:none;}.cls-5{stroke:#6d6e71;}.cls-6{fill:#e6e7e8;}.cls-19,.cls-6{stroke:#666766;}.cls-7{fill:#020202;}.cls-8{stroke:#5765af;}.cls-10,.cls-11,.cls-12,.cls-25,.cls-8,.cls-9{stroke-width:8px;}.cls-9{stroke:#662d91;}.cls-10{stroke:#69c;}.cls-11{stroke:#00a79d;}.cls-12{stroke:#2bb673;}.cls-13,.cls-25,.cls-26{stroke:#009444;}.cls-13{fill:url(#radial-gradient);}.cls-14{fill:url(#linear-gradient);}.cls-15{opacity:0.6;}.cls-16,.cls-18{stroke:#a97c50;}.cls-17{fill:#a97c50;}.cls-19{fill:#c6c6c5;}.cls-20{stroke:#19689e;fill:url(#linear-gradient-2);}.cls-21{fill:#231f20;}.cls-22{fill:url(#linear-gradient-3);}.cls-24{fill:#eee;stroke:#81bbe6;}.cls-26{fill:#09572c;}</style><radialGradient id="radial-gradient" cx="200.6" cy="254.54" r="50.2" gradientUnits="userSpaceOnUse"><stop offset="0.22"/><stop offset="1" stop-color="#2c5531"/></radialGradient><linearGradient id="linear-gradient" x1="160.25" y1="31.08" x2="235.58" y2="31.08" gradientUnits="userSpaceOnUse"><stop offset="0.34" stop-color="#f9ed32"/><stop offset="0.42" stop-color="#f2e631"/><stop offset="0.53" stop-color="#dfd130"/><stop offset="0.67" stop-color="#bfb02d"/><stop offset="0.83" stop-color="#948129"/><stop offset="1" stop-color="#5d4724"/></linearGradient><linearGradient id="linear-gradient-2" x1="335.19" y1="91.82" x2="351.56" y2="91.82" gradientUnits="userSpaceOnUse"><stop offset="0.09" stop-color="#69c"/><stop offset="0.93" stop-color="#5765af"/></linearGradient><linearGradient id="linear-gradient-3" x1="374.67" y1="67.2" x2="374.67" y2="115.47" xlink:href="#linear-gradient-2"/></defs><g id="background"><rect class="cls-1" y="46.39" width="397.2" height="461.34"/><rect class="cls-2" width="397.2" height="46.39"/><rect class="cls-2" y="507.73" width="397.2" height="43.19"/></g><g id="paddles"><rect class="cls-3" x="310.16" y="463.8" width="34.37" height="34.37" rx="12"/><rect class="cls-3" x="310.55" y="406.56" width="34.37" height="34.37" rx="12"/><rect class="cls-3" x="270.52" y="434.96" width="34.37" height="34.37" rx="8.21"/><rect class="cls-3" x="349.01" y="435.16" width="34.37" height="34.37" rx="12"/><polygon class="cls-4" points="361.75 459.58 374.63 452.15 361.75 444.71 361.75 459.58"/><rect class="cls-3" x="19.42" y="454.4" width="61.56" height="28.35" rx="12"/><path class="cls-5" d="M37.7,467.16a18.18,18.18,0,0,1,25.73,0"/><polygon class="cls-4" points="292.15 459.92 279.27 452.48 292.15 445.04 292.15 459.92"/><polygon class="cls-4" points="334.99 428.18 327.55 415.3 320.11 428.18 334.99 428.18"/><polygon class="cls-4" points="334.35 477.25 326.91 490.13 319.47 477.25 334.35 477.25"/><circle class="cls-6" cx="29.2" cy="471.77" r="3.88"/><circle class="cls-6" cx="71.99" cy="470.57" r="3.88"/><polygon class="cls-4" points="58.31 468.51 65.82 468.87 62.37 462.19 58.31 468.51"/><polygon class="cls-4" points="34.61 468.51 42.12 468.87 38.67 462.19 34.61 468.51"/></g><g id="ringBackground"><circle class="cls-7" cx="200.3" cy="253.04" r="168.7"/></g><g id="ring1"><circle class="cls-8" cx="199.78" cy="252.11" r="168.19"/><circle class="cls-9" cx="200.21" cy="252.96" r="150.64"/><circle class="cls-10" cx="200" cy="253.27" r="133.07"/><circle class="cls-11" cx="201.43" cy="252.83" r="114.86"/><circle class="cls-12" cx="202.28" cy="252.66" r="96.42"/><circle class="cls-13" cx="202.21" cy="252.54" r="69.23"/></g><g id="dropper"><path class="cls-14" d="M197.91,0H160.25s7.64,6.13,11.87,13.42a89.46,89.46,0,0,1,5.93,17.42c-.47-2.48,1,2,3.24,16.22,0,0,1,6.51,4.15,10.5,0,0,2.11,2.91,3.75,3.63,0,0,1.36,1,8.72,1s8.73-1,8.73-1c1.64-.72,3.75-3.63,3.75-3.63,3.15-4,4.15-10.5,4.15-10.5,2.27-14.18,3.71-18.7,3.24-16.22a89.46,89.46,0,0,1,5.93-17.42C227.94,6.13,235.58,0,235.58,0Z"/><g class="cls-15"><line class="cls-16" x1="197.53" y1="33.39" x2="197.53" y2="41.04"/><polygon class="cls-17" points="187.55 38.12 197.53 55.39 207.5 38.12 187.55 38.12"/><polyline class="cls-17" points="196.34 32.16 197.53 33.54 198.71 34.93 198.71 40 198.71 42.57 198.71 45.1 198.71 46.39 198.71 50.21 197.53 50.21"/><polyline class="cls-18" points="196.34 32.16 197.53 33.54 198.71 34.93 198.71 40 198.71 42.57 198.71 45.1 198.71 46.39 198.71 46.82"/><polygon class="cls-17" points="196.38 45.36 197.53 50.21 201.16 46.79 196.38 45.36"/><polygon class="cls-17" points="199.9 45.03 197.53 45.03 195.15 45.03 195.15 41.51 195.15 37.98 195.15 30.93 197.53 30.93 199.9 30.93 199.9 37.98 199.9 41.51 199.9 45.03"/></g></g><g id="cup"><circle class="cls-19" cx="49.57" cy="262.86" r="7.01"/><circle class="cls-19" cx="350.84" cy="262.86" r="7.01"/><circle class="cls-19" cx="200.23" cy="102.32" r="7.01"/><circle class="cls-19" cx="200.23" cy="403.6" r="7.01"/><circle class="cls-19" cx="294.52" cy="163.84" r="7.01"/><circle class="cls-19" cx="105.87" cy="349.08" r="7.01"/><circle class="cls-19" cx="104.87" cy="162.84" r="7.01"/><circle class="cls-19" cx="293.2" cy="349.08" r="7.01"/><circle class="cls-19" cx="157.24" cy="358.09" r="7.01"/><circle class="cls-19" cx="249.37" cy="149.83" r="7.01"/><circle class="cls-19" cx="304.89" cy="302.9" r="7.01"/><circle class="cls-19" cx="100.86" cy="197.03" r="7.01"/><circle class="cls-19" cx="163.8" cy="163.84" r="7.01"/><circle class="cls-19" cx="242.64" cy="339.23" r="7.01"/><circle class="cls-19" cx="294.52" cy="110.43" r="7.01"/><circle class="cls-19" cx="113.87" cy="398.56" r="7.01"/><circle class="cls-19" cx="327.73" cy="361.64" r="7.01"/><circle class="cls-19" cx="71.99" cy="138.97" r="7.01"/></g><g id="cannon"><path class="cls-20" d="M344.7,115.2h0a6.88,6.88,0,0,1-6.86-6.86s-2.65-13.55-2.65-17.65c0-6.26,2.65-15.56,2.65-15.4a6.88,6.88,0,0,1,6.86-6.85h0a6.88,6.88,0,0,1,6.86,6.85v33.05A6.88,6.88,0,0,1,344.7,115.2Z"/><path class="cls-21" d="M343.81,110.43h0c-2.66,0-4.84-2.49-4.84-5.54,0,0-1.87-11-1.87-14.26A62.16,62.16,0,0,1,339,78.18c0-3.05,2.18-5.54,4.84-5.54h0c2.66,0,4.84,2.49,4.84,5.54v26.71C348.65,107.94,346.47,110.43,343.81,110.43Z"/><path class="cls-22" d="M396.94,61.92a35.27,35.27,0,0,0-19,5.4h0c-14,9.18-26.4,8-26.4,8v31.62c16.06.87,22.36,3.76,24.39,5,.26.2.53.39.8.58l0,0h0a35.15,35.15,0,0,0,20.16,6.19c1.64,0,.4-12.72.4-28.4S398.58,61.92,396.94,61.92Z"/></g>

    <g id="score"><path class="cls-23" d="M16.2,534.81a6.44,6.44,0,0,1-2.34-.4,6.23,6.23,0,0,1-1.95-1.26.79.79,0,0,1-.2-.27.68.68,0,0,1-.08-.34.76.76,0,0,1,.2-.51.68.68,0,0,1,.52-.23.66.66,0,0,1,.45.2,5.08,5.08,0,0,0,1.52,1,4.51,4.51,0,0,0,1.84.36,3.74,3.74,0,0,0,1.42-.25,2.51,2.51,0,0,0,1-.7A1.59,1.59,0,0,0,19,531.4a1.72,1.72,0,0,0-.4-1.18,3.06,3.06,0,0,0-1.12-.78,11.42,11.42,0,0,0-1.65-.54,11.35,11.35,0,0,1-1.52-.47,4.43,4.43,0,0,1-1.2-.71,2.84,2.84,0,0,1-.8-1,3.47,3.47,0,0,1-.28-1.43,3,3,0,0,1,.54-1.79,3.64,3.64,0,0,1,1.51-1.2,5.27,5.27,0,0,1,2.2-.43,6,6,0,0,1,2.08.36,4,4,0,0,1,1.58,1,.94.94,0,0,1,.36.68.68.68,0,0,1-.23.48.7.7,0,0,1-.51.22.6.6,0,0,1-.36-.12,3.28,3.28,0,0,0-.78-.62,5,5,0,0,0-1-.43,3.87,3.87,0,0,0-1.11-.16,4.1,4.1,0,0,0-1.46.24,2.39,2.39,0,0,0-1,.68,1.76,1.76,0,0,0,0,2.17,3,3,0,0,0,1.06.72,11.67,11.67,0,0,0,1.48.49,15.7,15.7,0,0,1,1.63.5,4.73,4.73,0,0,1,1.28.69,2.88,2.88,0,0,1,.84,1,3.71,3.71,0,0,1,.3,1.58,2.93,2.93,0,0,1-.56,1.76,3.8,3.8,0,0,1-1.52,1.23A5.07,5.07,0,0,1,16.2,534.81Z"/><path class="cls-23" d="M31.91,522.85a.63.63,0,0,1,.36.49.76.76,0,0,1-.16.61.59.59,0,0,1-.41.25,1,1,0,0,1-.51-.1,5.48,5.48,0,0,0-1.28-.57,4.82,4.82,0,0,0-1.44-.21,5.11,5.11,0,0,0-1.94.36,4.38,4.38,0,0,0-1.53,1,4.85,4.85,0,0,0-1,1.59,5.46,5.46,0,0,0-.36,2,5.64,5.64,0,0,0,.38,2.12,4.62,4.62,0,0,0,1,1.59,4.28,4.28,0,0,0,1.53,1,5.08,5.08,0,0,0,1.89.34,4.81,4.81,0,0,0,2.7-.77.94.94,0,0,1,.52-.09.62.62,0,0,1,.42.25.71.71,0,0,1,.17.61.67.67,0,0,1-.35.47,6.59,6.59,0,0,1-1,.49,7.76,7.76,0,0,1-1.19.34,6.53,6.53,0,0,1-3.68-.32A6.35,6.35,0,0,1,24,533.07a5.92,5.92,0,0,1-1.39-2,6.89,6.89,0,0,1-.51-2.71,6.76,6.76,0,0,1,.49-2.57A6.1,6.1,0,0,1,26,522.38a6.5,6.5,0,0,1,2.52-.48,6.89,6.89,0,0,1,1.82.24A6.22,6.22,0,0,1,31.91,522.85Z"/><path class="cls-23" d="M45.81,528.33a7.1,7.1,0,0,1-.45,2.56A6.2,6.2,0,0,1,44.09,533a5.72,5.72,0,0,1-1.93,1.37,6.27,6.27,0,0,1-4.86,0A5.68,5.68,0,0,1,35.38,533a6,6,0,0,1-1.26-2.06,7.7,7.7,0,0,1,0-5.13,6.12,6.12,0,0,1,1.26-2.06,5.82,5.82,0,0,1,1.92-1.37,6.39,6.39,0,0,1,4.86,0,5.86,5.86,0,0,1,1.93,1.37,6.3,6.3,0,0,1,1.27,2.06A7.15,7.15,0,0,1,45.81,528.33Zm-1.57,0a5.72,5.72,0,0,0-.57-2.6,4.51,4.51,0,0,0-1.6-1.8,4.6,4.6,0,0,0-4.68,0,4.53,4.53,0,0,0-1.59,1.79,6.14,6.14,0,0,0,0,5.21,4.46,4.46,0,0,0,1.59,1.79,4.54,4.54,0,0,0,4.68,0,4.49,4.49,0,0,0,1.6-1.79A5.75,5.75,0,0,0,44.24,528.33Z"/><path class="cls-23" d="M49,534.63a.9.9,0,0,1-.59-.22.65.65,0,0,1-.25-.52V522.76a.72.72,0,0,1,.73-.73h5a3.59,3.59,0,0,1,1.82.46A3.39,3.39,0,0,1,57,523.75a3.55,3.55,0,0,1,.47,1.84,3.48,3.48,0,0,1-.28,1.41,3.71,3.71,0,0,1-.8,1.15,3.29,3.29,0,0,1-1.15.72l-.39-.27a2.7,2.7,0,0,1,1.09.49A2.8,2.8,0,0,1,57,531.35a10.57,10.57,0,0,0,.09,1.06,2.29,2.29,0,0,0,.16.62.81.81,0,0,0,.31.35.76.76,0,0,1,.33.44.56.56,0,0,1-.1.52.51.51,0,0,1-.3.24.93.93,0,0,1-.4,0,1.09,1.09,0,0,1-.36-.12,2.58,2.58,0,0,1-.55-.48,2.49,2.49,0,0,1-.45-.91,6.2,6.2,0,0,1-.17-1.62,2.07,2.07,0,0,0-.19-.94,1.65,1.65,0,0,0-.48-.61,2,2,0,0,0-.68-.33,3.32,3.32,0,0,0-.77-.1h-4l.22-.3v4.68a.78.78,0,0,1-.18.52A.61.61,0,0,1,49,534.63Zm.45-6.41h4.41a2,2,0,0,0,1-.36,2.39,2.39,0,0,0,.75-.9,3,3,0,0,0,.29-1.33,2.18,2.18,0,0,0-.6-1.57,2,2,0,0,0-1.51-.63H49.53l.15-.36v5.47Z"/><path class="cls-23" d="M61.07,522h6.41a.75.75,0,0,1,.52.2.67.67,0,0,1,.22.52.6.6,0,0,1-.22.49.74.74,0,0,1-.52.19h-5.8l.17-.31v4.54l-.18-.2h5a.75.75,0,0,1,.52.2.66.66,0,0,1,.22.52.62.62,0,0,1-.22.5.79.79,0,0,1-.52.19h-5l.13-.18v4.66l-.11-.13h5.74a.69.69,0,0,1,.52.22.67.67,0,0,1,0,1,.75.75,0,0,1-.52.2H61.07a.75.75,0,0,1-.74-.74V522.76a.74.74,0,0,1,.22-.52A.72.72,0,0,1,61.07,522Z"/><path class="cls-23" d="M70.9,527.28a.76.76,0,0,1-.58-.21.84.84,0,0,1-.21-.6v-.36a.84.84,0,0,1,.21-.61.77.77,0,0,1,.58-.22H71a.78.78,0,0,1,.6.22.88.88,0,0,1,.2.61v.36a.89.89,0,0,1-.2.6.78.78,0,0,1-.6.21Zm0,7.35a.74.74,0,0,1-.58-.23.84.84,0,0,1-.21-.6v-.36a.84.84,0,0,1,.21-.6.76.76,0,0,1,.58-.21H71a.78.78,0,0,1,.6.21.89.89,0,0,1,.2.6v.36a.89.89,0,0,1-.2.6.75.75,0,0,1-.6.23Z"/><rect class="cls-24" x="81.49" y="516.49" width="99.84" height="23.67"/></g><g id="inner_ring" data-name="inner ring"><circle class="cls-25" cx="201.7" cy="251.59" r="68.28"/></g><g id="leftramp"><path class="cls-26" d="M139.7,270.77c-13.81,0-22.13-8.13-22.13-18.16s8.32-18.16,22.13-18.16"/></g><g id="rightramp"><path class="cls-26" d="M263.38,271.12c13.81,0,22.13-8.13,22.13-18.16s-8.32-18.16-22.13-18.16"/></g><g id="hole"><circle cx="201.43" cy="253.68" r="16.19"/></g></svg>