<svg id="score" xmlns="http://www.w3.org/2000/svg" viewBox="0 0 60.21 12.96"><defs><style>.cls-1{fill:#e8d333;}</style></defs><path class="cls-1" d="M5.52,14.11a6.23,6.23,0,0,1-2.34-.4,6.08,6.08,0,0,1-1.94-1.26A.82.82,0,0,1,1,12.18.77.77,0,0,1,1,11.84a.73.73,0,0,1,.21-.51.68.68,0,0,1,.51-.23.62.62,0,0,1,.45.2,5.15,5.15,0,0,0,1.52,1,4.56,4.56,0,0,0,1.85.37,3.78,3.78,0,0,0,1.42-.26,2.48,2.48,0,0,0,1-.7,1.58,1.58,0,0,0,.37-1,1.75,1.75,0,0,0-.4-1.19,3,3,0,0,0-1.12-.77,9.56,9.56,0,0,0-1.64-.54,12.4,12.4,0,0,1-1.52-.48A4.58,4.58,0,0,1,2.4,7a2.93,2.93,0,0,1-.79-1,3.32,3.32,0,0,1-.28-1.43,3,3,0,0,1,.54-1.79,3.61,3.61,0,0,1,1.5-1.2,5.31,5.31,0,0,1,2.21-.43,6,6,0,0,1,2.08.36,4.07,4.07,0,0,1,1.57,1,1,1,0,0,1,.36.68.67.67,0,0,1-.22.48.72.72,0,0,1-.52.22.6.6,0,0,1-.36-.12,2.9,2.9,0,0,0-.78-.61,5,5,0,0,0-1-.44,4.12,4.12,0,0,0-1.1-.16,3.85,3.85,0,0,0-1.46.25,2.22,2.22,0,0,0-1,.67,1.58,1.58,0,0,0-.35,1,1.63,1.63,0,0,0,.39,1.13,3.1,3.1,0,0,0,1.06.72,10.7,10.7,0,0,0,1.48.49,15,15,0,0,1,1.63.5A5.24,5.24,0,0,1,8.64,8,2.71,2.71,0,0,1,9.47,9.1a3.66,3.66,0,0,1,.3,1.57,2.93,2.93,0,0,1-.56,1.76,3.8,3.8,0,0,1-1.52,1.23A5,5,0,0,1,5.52,14.11Z" transform="translate(-0.95 -1.15)"/><path class="cls-1" d="M21.24,2.16a.65.65,0,0,1,.36.48.77.77,0,0,1-.17.61A.55.55,0,0,1,21,3.5a.89.89,0,0,1-.5-.1,5.88,5.88,0,0,0-1.28-.57,4.92,4.92,0,0,0-1.44-.21,5.33,5.33,0,0,0-2,.36,4.57,4.57,0,0,0-1.53,1,4.83,4.83,0,0,0-1,1.59,5.5,5.5,0,0,0-.36,2,5.64,5.64,0,0,0,.37,2.12,4.82,4.82,0,0,0,1,1.6,4.43,4.43,0,0,0,1.53,1,5.1,5.1,0,0,0,1.9.35,5.18,5.18,0,0,0,1.42-.2,4.94,4.94,0,0,0,1.28-.58.93.93,0,0,1,.51-.09.59.59,0,0,1,.42.26.7.7,0,0,1,.18.6.66.66,0,0,1-.36.47,6,6,0,0,1-1,.49A6.88,6.88,0,0,1,19,14a5.71,5.71,0,0,1-1.23.13,6.66,6.66,0,0,1-2.45-.45,6.21,6.21,0,0,1-2-1.29,5.85,5.85,0,0,1-1.4-2,7,7,0,0,1-.5-2.71,6.79,6.79,0,0,1,.48-2.57,6.48,6.48,0,0,1,1.35-2,6.19,6.19,0,0,1,2-1.34,6.84,6.84,0,0,1,4.35-.23A5.87,5.87,0,0,1,21.24,2.16Z" transform="translate(-0.95 -1.15)"/><path class="cls-1" d="M35.13,7.63a7.1,7.1,0,0,1-.45,2.56,6.1,6.1,0,0,1-1.27,2.06,5.58,5.58,0,0,1-1.92,1.37,5.91,5.91,0,0,1-2.44.49,5.85,5.85,0,0,1-2.42-.49,5.72,5.72,0,0,1-1.93-1.37,6.24,6.24,0,0,1-1.26-2.06A7.32,7.32,0,0,1,23,7.63a7.42,7.42,0,0,1,.44-2.57A6.45,6.45,0,0,1,24.7,3a5.86,5.86,0,0,1,1.93-1.37,6,6,0,0,1,2.42-.48,6.07,6.07,0,0,1,2.44.48A5.72,5.72,0,0,1,33.41,3a6.3,6.3,0,0,1,1.27,2.06A7.19,7.19,0,0,1,35.13,7.63Zm-1.56,0A5.75,5.75,0,0,0,33,5,4.39,4.39,0,0,0,31.4,3.24a4.22,4.22,0,0,0-2.35-.65,4.17,4.17,0,0,0-2.33.65A4.46,4.46,0,0,0,25.12,5a5.7,5.7,0,0,0-.57,2.61,5.75,5.75,0,0,0,.57,2.6A4.49,4.49,0,0,0,26.72,12a4.25,4.25,0,0,0,2.33.65A4.3,4.3,0,0,0,31.4,12,4.39,4.39,0,0,0,33,10.23,5.75,5.75,0,0,0,33.57,7.63Z" transform="translate(-0.95 -1.15)"/><path class="cls-1" d="M38.34,13.93a.87.87,0,0,1-.6-.22.65.65,0,0,1-.25-.52V2.07a.71.71,0,0,1,.22-.53.7.7,0,0,1,.52-.21h5A3.56,3.56,0,0,1,45,1.79,3.42,3.42,0,0,1,46.3,3.06a3.52,3.52,0,0,1,.48,1.83,3.53,3.53,0,0,1-.29,1.42,3.76,3.76,0,0,1-.79,1.14,3.38,3.38,0,0,1-1.15.72l-.4-.27a2.74,2.74,0,0,1,1.1.49,2.83,2.83,0,0,1,1.11,2.26c0,.45.06.8.09,1.06a2,2,0,0,0,.17.63.85.85,0,0,0,.3.35.76.76,0,0,1,.34.43.58.58,0,0,1-.1.52.56.56,0,0,1-.31.24.78.78,0,0,1-.4,0,1.09,1.09,0,0,1-.36-.12,2.2,2.2,0,0,1-1-1.38,5.84,5.84,0,0,1-.18-1.62,2.24,2.24,0,0,0-.18-1,1.67,1.67,0,0,0-.49-.61,1.78,1.78,0,0,0-.68-.32,2.86,2.86,0,0,0-.77-.1h-4L39,8.51v4.68a.78.78,0,0,1-.18.52A.58.58,0,0,1,38.34,13.93Zm.45-6.41H43.2a1.87,1.87,0,0,0,1-.36,2.46,2.46,0,0,0,.74-.9,2.83,2.83,0,0,0,.29-1.33,2.18,2.18,0,0,0-.6-1.57,2,2,0,0,0-1.5-.63H38.86L39,2.37V7.84Z" transform="translate(-0.95 -1.15)"/><path class="cls-1" d="M50.4,1.33h6.4a.74.74,0,0,1,.53.21.66.66,0,0,1,.21.51.62.62,0,0,1-.21.49.77.77,0,0,1-.53.19H51l.16-.3V7L51,6.76h5a.78.78,0,0,1,.53.2.69.69,0,0,1,.21.52.64.64,0,0,1-.21.5.77.77,0,0,1-.53.19H51L51.17,8v4.66l-.11-.13H56.8a.75.75,0,0,1,.53.22.68.68,0,0,1,.21.49.66.66,0,0,1-.21.5.78.78,0,0,1-.53.2H50.4a.71.71,0,0,1-.53-.22.72.72,0,0,1-.21-.52V2.07a.72.72,0,0,1,.74-.74Z" transform="translate(-0.95 -1.15)"/><path class="cls-1" d="M60.22,6.58a.78.78,0,0,1-.58-.21.83.83,0,0,1-.21-.6V5.41a.85.85,0,0,1,.21-.61.78.78,0,0,1,.58-.21h.15A.77.77,0,0,1,61,4.8a.9.9,0,0,1,.2.61v.36a.87.87,0,0,1-.2.6.77.77,0,0,1-.59.21Zm0,7.35a.75.75,0,0,1-.58-.23.84.84,0,0,1-.21-.6v-.36a.8.8,0,0,1,.21-.59.75.75,0,0,1,.58-.22h.15a.74.74,0,0,1,.59.22.84.84,0,0,1,.2.59v.36a.89.89,0,0,1-.2.6.75.75,0,0,1-.59.23Z" transform="translate(-0.95 -1.15)"/></svg>