<svg id="Title" xmlns="http://www.w3.org/2000/svg" viewBox="0 0 147.24 48.34"><defs><style>.cls-1{fill:#e8d333;}</style></defs><path class="cls-1" d="M18.68,16.46h-5.5v14.3H0V0H24.17q6.58,0,6.59,5.49l0,5.47c0,1.12-.75,2-2.22,2.77,1.47.74,2.2,1.65,2.2,2.75V30.76q0,4.39,4.4,4.4h22V48.34H25.27q-6.6,0-6.59-5.49Zm0-5.47V5.49h-5.5l0,5.5Z"/><path class="cls-1" d="M46.14,6.59H33V0H46.14ZM33,8.79H46.14v22H33Z"/><path class="cls-1" d="M60.42,30.74l-12.08,0v-22H65.92q6.57,0,6.59,5.49V30.76l-6.59,0,0-16.46H60.42Z"/><path class="cls-1" d="M98.9,42.85q0,5.49-6.59,5.49H60.45V35.16h22q4.39,0,4.39-4.4v0H81.32q-6.58,0-6.59-5.47v-11q0-5.49,6.59-5.49H98.9Zm-12.09-23V14.28H81.32v5.5Z"/><path class="cls-1" d="M125.24,19.78v11H107.67q-6.6,0-6.6-5.49v-11q0-5.5,6.6-5.51h13.18q4.4,0,4.39,3.29a6.35,6.35,0,0,1-2.19,4.4l-3.3,3.3Zm-6.59-5.5h-5.49v5.5Z"/><path class="cls-1" d="M127.46,30.76V14.3q0-5.5,6.6-5.51h13.18v5.49h-7.69V30.76Z"/></svg>